<svg width="344" height="520" viewBox="0 0 344 520" fill="none" xmlns="http://www.w3.org/2000/svg">
<g clip-path="url(#clip0_88_9)">
<rect width="344" height="520" fill="white"/>
<rect width="840" height="788" fill="white"/>
<g clip-path="url(#clip1_88_9)">
<path d="M116.046 154.495H115.479M115.479 154.495V154.653H116.046M115.479 154.495V154.054V152.385M116.046 159.409H115.479M115.479 159.409V160.575M115.479 159.409V158.968M116.046 162.685H115.479V162.244M116.046 170.844H115.479M115.479 170.844V171.001H116.046M115.479 170.844V170.434H116.046M116.046 178.75H115.479V173.805M147.767 154.18H148.019V149.203H147.767M147.767 167.631H148.019M148.019 167.631V168.733M148.019 167.631V167.19M147.767 170.907H148.019M127.008 200.548L126.693 200.233L126.252 199.666L125.748 199.068M138.789 200.611L139.104 200.265L139.608 199.698L140.049 199.099L140.112 208.266M126.189 198.186L125.748 197.43V199.099M125.118 245.751L125.055 246.601L125.118 247.515L125.213 248.365L125.465 249.216L125.78 250.066L126.189 250.885L126.693 251.578L127.292 252.271M127.26 252.303L127.922 252.901L128.615 253.405L129.434 253.846L130.253 254.193L131.103 254.445L131.954 254.634L132.867 254.697L133.718 254.634L134.631 254.539L135.482 254.287L136.301 253.972L137.12 253.531L137.876 253.027L138.537 252.46L139.136 251.799L139.703 251.106L140.144 250.287L140.49 249.468L140.679 248.869M140.805 250.192L140.648 250.444L140.207 251.263L139.64 252.082L139.041 252.775L138.348 253.374L137.592 253.941L136.773 254.382L135.923 254.791L135.009 255.043L134.096 255.232L133.151 255.295H132.237L131.292 255.138L130.379 254.886L129.528 254.571L128.678 254.13L127.922 253.626L127.166 253.027L126.567 252.366L125.969 251.61L125.465 250.791L125.118 249.94L124.803 249.027L124.614 248.113L124.52 247.2L124.457 246.79M145.656 243.987L145.562 243.577L145.215 242.412L144.806 241.341M144.806 241.341L144.302 240.27L143.703 239.325M144.806 241.341L145.247 242.443L145.562 243.546L145.814 244.711L145.971 245.877V247.042L145.908 248.208L145.719 249.373L145.467 250.539L145.058 251.641L144.617 252.712L144.05 253.72L143.388 254.728L142.695 255.642L141.876 256.492M143.703 239.325L143.609 239.167M143.703 239.325L143.64 239.23M141.971 256.24L142.664 255.484L143.357 254.571L144.018 253.626L144.585 252.618L145.026 251.547L145.278 250.854M121.527 239.482L121.275 239.923L120.708 240.931L120.204 242.002L119.858 243.105L119.606 244.207L119.417 245.373L119.354 246.538V247.704L119.511 248.869L119.763 250.035L120.078 251.137L120.488 252.208L121.055 253.279L121.37 253.783M121.496 254.161L120.929 253.248L120.362 252.177L119.952 251.074L119.606 249.972L119.417 248.806L119.259 247.641V246.475L119.322 245.31L119.48 244.144L119.795 243.042L120.141 241.939L120.645 240.837L121.212 239.829L121.464 239.388M135.923 222.315L135.86 222.063M130.032 221.748V221.433H135.324M130.032 221.748H135.261V221.559L135.324 221.496V221.433M130.032 221.748H129.875L129.812 221.811L129.749 221.874L129.686 221.937V222.031M135.324 221.433H135.419L135.513 221.496L135.608 221.559L135.702 221.622L135.765 221.716L135.828 221.811L135.891 221.905V222.063M135.891 222.063V222.882M135.891 222.063V222H135.576M129.749 222.85V222H129.434V222.063L129.497 221.905V221.811L129.56 221.716L129.654 221.622L129.717 221.559L129.812 221.496L129.906 221.433H130.064M135.576 222.85V222M135.576 222V221.905L135.513 221.842L135.45 221.779L135.387 221.716H135.23M130.001 221.464L129.938 221.401H132.647M129.434 222.189L129.371 221.937M129.371 221.937V222.85M129.371 221.937V221.842L129.434 221.748L129.497 221.653L129.56 221.559L129.654 221.496L129.749 221.433L129.843 221.37H129.938M133.718 220.078H133.875V220.236M133.56 219.448H133.718V218.881M135.387 221.433V221.37M129.339 225.622L129.182 225.559L128.867 225.402L128.615 225.307L128.457 225.15L128.3 225.055L128.237 224.898L128.174 224.803M129.339 225.622V225.276M129.339 225.622L129.276 229.245H130.095M129.339 225.622H131.04M136.773 224.772V224.929L136.679 225.087L136.521 225.181L136.332 225.339L136.143 225.433L135.828 225.591L135.639 225.654M136.773 224.772L136.836 224.079V223.669L136.899 224.016V224.866L136.836 225.276V226.189L136.773 227.04M136.773 224.772V224.583L136.679 224.488L136.616 224.394L136.521 224.331L136.427 224.268L136.332 224.205H136.238L136.301 223.386M136.773 224.772V227.04M128.615 227.071L128.678 227.008L128.772 226.599L128.93 226.284L129.119 226.032L129.276 225.937M135.576 225.937L135.671 226L135.923 226.158L136.112 226.473L136.269 226.788L136.332 227.134M134.6 231.828L134.757 226.882V229.245M133.718 231.828L133.907 225.622M133.907 225.622H135.576M133.907 225.622H134.096L134.253 225.717L134.411 225.811L134.505 225.969L134.6 226.158L134.694 226.347L134.757 226.599V226.851M133.907 225.622H131.04M131.04 225.622L130.851 231.828M124.047 194.248H123.701V193.398M124.047 194.248H124.898L124.803 194.154M124.047 194.248L123.984 194.154M140.9 194.248H142.097M140.9 194.248H140.207H139.545M140.9 194.248L140.963 194.154M124.803 194.154H123.984M124.803 194.154H126.41M124.803 194.154V193.398M123.984 194.154V193.398M124.929 194.248H125.622H126.315L126.41 194.154M126.41 194.154V193.398M139.545 194.248H138.852H138.159L138.096 194.154V193.398M139.545 194.248L139.64 194.154M140.963 194.154H139.64M140.963 194.154V193.398M139.64 194.154H138.065M139.64 194.154V193.398M125.402 195.13H140.396V194.28M136.332 194.154H137.907V193.398M136.332 194.154L136.427 194.248H137.088H137.781L137.876 194.154M136.332 194.154V193.398M127.922 194.154H129.497V193.398M127.922 194.154V193.398M127.922 194.154L127.985 194.248H128.678H129.371L129.465 194.154M132.93 194.248H132.111V193.398M132.899 194.248H133.655V193.398M141.152 188.83H142.16V193.398H123.638V188.83H124.583M141.152 188.83V184.641M141.152 188.83H140.963M113.432 60.7515H108.612M113.432 60.7515V65.2875M113.432 60.7515H118.818M104.328 65.0985V69.918V73.0365M110.502 68.091L110.439 68.154L109.998 68.217L109.589 68.154L109.179 67.9965L108.833 67.7445L108.581 67.398L108.392 66.9885L108.297 66.579L108.36 66.138L108.455 65.7285L108.707 65.382L109.022 65.067L109.431 64.878L109.841 64.7835H110.25L110.691 64.878L111.038 65.067L111.353 65.382L111.605 65.7285L111.762 66.138V66.579L111.699 66.9255M108.581 60.7515L104.297 65.067M152.24 62.3265L152.397 62.484L152.46 62.6415L152.523 62.799L152.586 62.988L152.523 63.1455L152.46 63.3345L152.397 63.492L152.24 63.5865M152.24 62.3265L151.988 62.169L151.673 62.106L151.358 62.169L151.106 62.3265L150.917 62.5155L150.822 62.8305V63.1455L150.917 63.3975L151.106 63.6495L151.358 63.807L151.673 63.87L151.988 63.807L152.24 63.618M152.24 62.3265V60.657H157.059M161.406 69.7605V64.941L157.091 60.657M161.406 69.7605L156.87 69.8235M161.406 69.7605V71.7765M154.067 66.831L154.004 66.768L153.941 66.3585M153.941 66.39L154.004 65.949L154.193 65.5395L154.445 65.193L154.76 64.941L155.169 64.752L155.579 64.689H156.02L156.429 64.8465L156.776 65.0355L157.091 65.382L157.28 65.7285L157.374 66.138V66.579L157.28 66.9885L157.091 67.335L156.776 67.6815L156.429 67.8705L156.02 68.028L155.579 68.091L155.232 67.9965M108.833 69.918H104.297M144.774 60.6885L152.24 60.6255M152.24 65.193V63.555M103.068 105.607H88.421M85.4915 73.0995H88.358M88.358 73.0995L106.691 73.0365M88.358 73.0995V75.966M85.4915 77.1V73.068M88.3895 102.772L103.037 102.709M88.3895 102.772V105.576M88.3895 102.772L85.523 101.575M88.358 75.966L105.179 75.903M88.358 75.966L85.4915 77.1315M88.358 75.966L88.421 102.804M88.3895 105.607H85.586L85.523 101.575M85.523 101.575L85.46 77.1M101.493 86.172H98.375L96.926 87.621L96.989 91.0545M96.9575 91.0545L98.375 92.472H102.249L102.438 94.677L103.037 96.945M157.532 70.7685L156.524 69.3195L152.712 65.5395M152.681 65.5395L148.302 62.484M148.302 62.4525L144.837 60.846M118.598 61.9485L117.401 62.5155L112.959 65.634L109.179 69.4455M109.211 69.4455L106.092 73.824M106.061 73.8555L104.36 77.6355M97.7765 89.637L97.8395 89.952M99.194 87.5895L98.879 87.6525M99.8555 91.1175H99.5405H99.194L98.879 91.023M99.824 87.558L100.139 87.621L100.391 87.7785L100.643 87.936L100.895 88.188L101.052 88.44M99.824 87.5895L99.4775 87.5265L99.1625 87.5895M98.879 87.621L98.627 87.7785L98.375 87.936L98.123 88.188L97.9655 88.44L97.808 88.755L97.745 89.07M97.7765 89.0385L97.7135 89.3535L97.7765 89.6685M97.808 89.952L97.9655 90.267L98.123 90.519L98.375 90.708L98.627 90.897L98.879 90.9915M99.824 91.1175L100.139 91.023L100.391 90.8655L100.643 90.708L100.895 90.456L101.052 90.204L101.21 89.952M101.178 89.952L101.273 89.637M101.304 89.637V89.322M101.304 89.3535V89.007L101.21 88.692M101.178 88.692L101.021 88.44M116.991 72.375L108.644 72.69M108.644 72.69V72.7845M108.644 72.69L107.226 78.0135V78.0765M146.538 72.438L151.421 72.69M151.421 70.674V70.5165H152.271M151.421 70.674V71.43M151.421 70.674H152.271M107.226 78.0765V78.5805M107.226 78.0765L108.644 72.7845M108.644 72.7845V73.446M108.644 72.7845L116.991 72.4695M107.226 104.19V104.536L108.644 109.86M107.226 104.19V103.497M107.226 104.19L108.644 109.419M149.184 109.986L151.452 109.891M114.345 110.049L108.644 109.891V109.45M151.421 111.498V112.002H152.271M151.421 111.498V110.395M151.421 111.498H152.271M107.226 78.5805V79.431M107.226 78.5805L108.644 73.446M108.644 73.446V74.706M108.644 73.446L116.897 73.194M146.538 72.5955L151.421 72.7845M151.421 71.43V72.7215H152.271M151.421 71.43H152.271M107.226 103.497V102.394M107.226 103.497L108.644 108.442M108.644 109.419L114.345 109.576M108.644 109.419V108.411M149.184 109.482L151.452 109.419M108.644 108.411L114.345 108.568M108.644 108.411V106.836M151.421 110.395V108.694M151.421 110.395H152.271M107.226 79.431V80.628M107.226 79.431L108.644 74.706M108.644 74.706L116.739 74.454M108.644 74.706V76.407M146.664 73.2255L151.452 73.4145M107.226 102.394V100.977M107.226 102.394L108.644 106.867M149.184 108.474L151.452 108.411M146.79 74.4855L151.421 74.6745V77.1M107.226 80.628V82.203L108.644 78.5805V76.407M107.226 80.628L108.644 76.407M108.644 76.407L116.55 76.155M151.421 72.753V74.706H152.271M107.226 100.977V99.276M107.226 100.977L108.644 104.914M108.644 106.867V104.914M108.644 106.867L114.345 107.056M149.184 106.962L151.452 106.867M108.644 104.914V102.489M108.644 104.914L114.345 105.009M147.011 76.2495L151.452 76.407M151.421 106.458V108.663H152.271M151.421 106.458V103.749M151.421 106.458H152.271M107.226 99.276V97.323M107.226 99.276L108.644 102.489M149.184 104.946L151.452 104.883M108.644 102.489V99.717M108.644 102.489L114.345 102.583M151.421 77.1V79.935M151.421 77.1H152.271M107.226 83.9985V82.1715M107.226 83.9985L108.644 81.132M107.226 83.9985V86.0775M147.263 78.423L151.452 78.5805M116.298 78.36L108.644 78.549V81.132M108.644 81.132L115.952 80.9745M108.644 81.132V83.9985M151.421 103.749V100.693M151.421 103.749H152.271M149.184 102.552L151.452 102.489M108.644 99.717L107.226 97.2915V95.118M108.644 99.717V96.693M108.644 99.717L114.345 99.8115M107.226 86.0775L108.644 83.9985M107.226 86.0775V88.2825M147.546 81.0375L151.421 81.132M108.644 83.9985L115.605 83.904M151.421 79.935V83.148M151.421 79.935H152.271M149.184 99.78L151.452 99.717M108.644 96.693V93.5115M108.644 96.693L114.345 96.756M107.226 88.2825L108.644 87.0855M107.226 88.2825V90.5505M147.861 83.904L151.421 83.9985M108.644 87.0855V84.03M108.644 87.0855L115.227 87.0225M108.644 87.0855V90.2985M107.226 90.5505L108.644 90.2985M107.226 90.5505V92.8815M107.226 92.8815V95.1495L108.644 96.7245M107.226 92.8815L108.644 93.543M148.208 87.0225L151.421 87.0855M149.184 96.756L151.452 96.693M108.644 90.2985V93.5115M108.644 93.5115L114.44 93.5745M148.964 93.5115H151.421M148.554 90.2985H151.421M114.849 90.267L108.644 90.33M151.421 83.148V86.5815M151.421 83.148H152.271M151.421 97.3545V100.662H152.271M151.421 97.3545V93.795M151.421 97.3545H152.271M151.421 86.5815V90.141M151.421 86.5815H152.271M151.421 90.141V93.7635H152.271M151.421 90.141H152.271M122.378 57.0345H140.963M122.378 57.0345L119.511 57.2865L118.566 62.0115M122.378 57.0345L121.811 59.8065M140.963 57.0345L144.239 57.2235L144.932 61.35L146.129 69.0045L143.325 69.918M140.963 57.0345L141.404 59.838H121.874L120.551 66.4845M118.566 62.0115L121.842 59.8065L121.905 59.8695M118.566 62.0115L117.747 66.2325M117.716 66.894L117.779 66.2325M117.716 66.894L120.582 66.4845L119.007 79.431M117.716 66.894L115.448 85.1325M144.963 61.35L141.782 60.2475L141.435 59.838M143.325 69.918L141.75 60.2475M143.325 69.918L144.428 79.431M148.019 85.0695L146.16 69.0675V69.0045M148.019 85.0695L149.184 95.496V120.066M148.019 85.0695L146.318 85.0065M144.428 79.431L146.286 85.0065V119.908H117.18M144.428 79.431H119.007M119.007 79.431L117.18 84.8175M115.448 85.1325L117.212 84.8175V119.908L114.345 120.066M115.448 85.1325L114.345 94.3935V120.066M137.34 85.227L137.403 85.0695L137.498 84.8805L137.687 84.786L137.876 84.723M137.907 84.723L138.096 84.786L138.285 84.8805L138.443 85.0695V85.227M127.323 85.227L127.386 85.0695L127.544 84.8805L127.701 84.786L127.953 84.723M127.922 84.723L128.111 84.786L128.3 84.8805L128.394 85.0695L128.457 85.227M140.301 91.023L141.152 90.4245M141.152 84.1875L141.467 85.1325V89.385L141.152 90.393L140.301 91.0545M141.152 84.156L140.301 83.4945L132.899 82.2975L125.496 83.4945L124.646 84.156L124.331 85.101M124.362 85.101V89.385L124.677 90.393M125.496 91.0545V90.9915L124.646 90.393L125.496 91.0545ZM125.496 91.0545L132.899 92.3145M125.496 91.023L132.899 92.283M132.899 92.3145V92.2515L140.301 90.9915V91.0545M132.899 92.3145L140.301 91.0545M149.184 120.066V121.326M149.184 120.066L146.318 119.908M114.345 120.066V120.633M141.152 162.717V162.559H124.583M124.614 162.559V162.717M141.152 163.252V162.685H124.583M141.152 163.252V164.071M141.152 163.252H124.583M124.614 162.685V163.252V164.071V165.237M141.152 184.641V183.948M141.152 184.641L140.963 184.452M140.963 188.83H140.049H138.884M140.963 188.83V184.452M124.614 184.641V188.83H124.866V184.452M124.614 184.641V183.948M124.614 184.641L124.866 184.452M141.152 183.948V182.782M141.152 183.948H140.207L140.963 184.452M141.152 164.071V165.237M141.152 164.071H124.583M124.614 183.948V182.782V181.365H129.843M124.614 183.948H125.622M124.866 184.452L125.622 183.948M124.835 188.83H125.748H126.914M125.622 183.948L125.78 183.759M138.884 188.83H137.529M138.884 188.83V182.94M140.049 188.799V183.727L140.207 183.916M126.914 188.83H128.237M126.914 188.83V182.94L127.26 182.782M125.748 188.799V183.727L126.914 182.908M141.152 182.782V181.365H135.954M141.152 182.782H138.537M138.884 182.94L140.049 183.759M138.884 182.94L138.537 182.782M137.529 188.83H136.08M137.529 188.83V182.089L138.537 182.782M128.237 188.83H129.749V181.365H129.843M128.237 188.83V182.089L129.749 181.396M127.26 182.782H124.583M127.26 182.782L128.205 182.089M136.08 188.83H134.505M136.08 188.83V181.365M136.08 181.365L137.529 182.058M136.08 181.365H135.986M141.152 166.623V165.205H124.583M141.152 166.623V168.292M141.152 166.623H124.583M124.614 165.205V166.623V168.292V170.119M131.292 188.83H129.717M131.292 188.83V180.829L132.899 180.64M131.292 188.83H132.899M129.843 181.365L131.292 180.798M134.505 188.83H132.899M134.505 188.83V180.829L135.954 181.396M132.899 188.83V180.609L134.505 180.798M141.152 168.292V170.119M141.152 168.292H124.583M141.152 179.727V181.396M141.152 179.727V177.9M141.152 179.727H124.583M124.614 181.396V179.727V177.9V175.978V173.962V172.009V170.088M141.152 177.9V175.978M141.152 177.9H124.583M141.152 175.978V173.962M141.152 175.978H124.583M141.152 172.009V170.088H124.583M141.152 172.009V173.962M141.152 172.009H124.583M141.152 173.962H124.583M180.243 93.0075L178.227 91.3065M180.243 93.0075L180.401 93.669M180.243 93.0075L180.086 92.913M180.527 128.004L174.983 132.697M180.527 128.004L180.369 127.657M180.527 128.004L180.684 127.909L180.842 127.216M174.983 132.697L156.461 135.312V134.619M174.983 132.697V132.036M155.169 135.217L156.492 135.312M156.461 134.619L162.099 133.8L161.154 132.54M156.461 134.619V133.17M174.983 132.036L180.369 127.657M174.983 132.036L162.761 133.737M174.983 132.036V130.776M180.086 92.913L178.227 91.338M180.086 92.913L179.928 93.3225M180.369 127.657L180.212 126.744M179.928 93.3225L178.353 92.1255M179.928 93.3225L179.771 94.2675M162.761 133.737L163.076 134.052L162.162 134.304M162.761 133.737L171.707 131.154M174.983 130.776L171.707 131.185M174.983 130.776V130.366M175.014 130.776L180.243 126.744L180.18 126.24M174.983 130.366L180.18 126.24M174.983 130.366V128.949M155.169 134.493L156.492 134.587M179.771 94.2675L178.857 93.4485M179.771 94.2675L179.613 94.3305L178.952 93.7635M155.169 133.044L156.492 133.138M161.154 132.54L156.461 133.138V131.028V128.256M161.154 132.54L159.138 130.713M155.169 130.933L156.492 131.028M156.461 131.059L159.138 130.744L156.555 128.634M156.461 128.256H156.524M156.461 128.256V127.563M180.18 126.24L179.739 125.074M162.162 134.304L162.068 134.241L162.131 133.8M162.162 134.304V131.626V128.854M171.738 131.185L175.014 130.366M156.555 128.602V128.445M155.169 128.224L156.492 128.287M153.909 121.83V121.168M153.909 121.168V117.199M153.909 121.168L155.862 121.263M155.169 124.948L156.177 125.011M153.909 117.199V112.978M153.909 117.199L155.579 117.262M153.909 112.348V112.947L155.264 113.01M175.014 128.98L179.739 125.106L179.141 122.901M162.162 128.854V125.547M162.162 128.854L156.209 125.547L156.555 128.476L162.131 131.658L174.983 128.98V126.208M174.983 126.208L162.131 128.886M174.983 126.208V122.932M174.983 126.177L179.109 122.869L178.511 120.097M174.983 122.932L162.131 125.547M174.983 122.932V119.31M155.925 122.113L156.24 125.547M155.925 122.113L155.61 118.302L162.162 121.861M155.925 122.113L162.162 125.547M162.162 125.547V121.861M177.251 86.8335L177.503 86.991L177.597 87.999M177.503 87.117H177.314M177.503 87.117V86.9595M177.503 87.117V87.432H177.314M177.314 87.117V87.4635M177.314 87.117L177.251 86.7705V86.3295V85.8885V85.3845M178.511 120.097L174.983 122.901M178.511 120.097L177.912 116.979L174.983 119.31M177.471 87.684H177.377M177.471 87.684L177.534 87.432M177.471 87.684V87.873M177.471 87.873H177.377L177.44 87.9675M177.471 87.873L177.408 87.936V87.999M162.162 121.861V117.64V115.435M174.983 119.31L162.131 121.893M174.983 119.31V115.12M177.251 112.506H176.841M177.251 112.506V112.002M177.251 112.506V112.947M177.251 112.947H176.841M177.251 112.947V113.01L177.314 113.325M177.251 112.002H176.841M177.251 112.002V111.498M177.251 111.498H176.841M177.251 111.498L177.188 111.057M176.873 111.057H177.219V110.616M176.967 110.584H177.219L177.156 110.238M177.156 110.238H176.967V110.647V110.805M177.156 110.238V109.891M174.983 115.12V114.459M174.983 115.12L162.131 117.64L155.295 113.955M155.295 113.955L155.61 118.27M155.295 113.955L155.201 112.38M177.156 109.891H176.999M177.156 109.891L177.093 109.639M176.873 113.325L177.282 113.01M175.865 114.427L175.014 115.12M177.314 113.325L176.873 113.671M177.314 113.325L177.912 117.01M177.03 109.639H177.125V109.482M177.125 109.482H177.062M177.125 109.482L177.062 109.387L176.999 109.482V109.671V109.923L176.936 110.238M176.873 114.427V114.333L170.919 114.522L170.762 114.427M176.841 114.396L171.518 114.553L170.919 114.49M176.873 114.301V114.207V114.018M176.873 114.018V113.829M176.873 114.018L170.982 114.207L171.581 113.892M170.762 114.427L176.841 114.238M170.762 114.427L170.951 114.238M176.873 113.829V113.514M176.873 113.829L171.581 113.923L172.589 113.608M176.873 113.514V113.167V112.852M176.873 113.514L172.589 113.608M176.873 111.246V111.34V111.687M176.873 111.246V110.899L176.967 110.805M176.873 111.246L176.684 111.34M176.873 111.687V112.096M176.873 111.687H176.211M176.841 111.34H176.652L176.211 111.687M172.589 113.608L173.754 113.262M176.873 112.096V112.443V112.852M176.873 112.096H175.802M176.211 111.687L175.802 112.096M176.873 112.852H175.046M176.841 113.136L173.786 113.199L173.723 113.262L162.131 115.435M175.802 112.096L175.392 112.443M175.392 112.443H176.841M175.392 112.443L175.046 112.852M175.046 112.852L174.983 112.915M175.014 75.462L176.211 76.47L176.369 77.037M152.303 70.3275L155.012 70.0755L174.983 75.462M152.303 70.3275V71.0205M152.303 70.3275L155.012 70.1385L174.983 75.462M155.012 70.044V70.107V70.7685M174.983 75.462V75.966M155.925 112.191L162.162 115.404V110.332L161.658 110.679L155.012 112.443M176.117 76.344L175.014 75.4305M176.117 76.344L176.211 76.4385M176.117 76.344L175.959 76.7535M176.967 110.805L176.4 105.607M176.4 105.607L174.983 106.71M176.4 105.607L176.337 105.544M174.983 106.71V112.915M174.983 106.71L162.131 110.332M174.983 106.71V106.647M174.983 112.915L173.786 113.23M155.012 112.443V111.844M155.012 112.443L152.303 112.191V111.592M152.303 111.592V110.395M152.303 111.592L155.012 111.844M155.012 111.844V110.584M152.303 71.0205V72.2805M152.303 71.0205L155.012 70.7685M175.014 106.647L176.369 105.544L176.211 104.725M155.012 70.7685V72.0915M155.012 70.7685L174.983 75.966M174.983 75.966V76.911M175.959 76.7535L175.014 75.9345M175.959 76.7535L175.865 77.5725L175.014 76.911M152.303 110.395V108.568M152.303 110.395L155.012 110.584M155.012 110.584L174.983 105.702V104.347M155.012 110.584V108.757L152.303 108.568M155.012 111.876L174.983 106.678V105.733M152.303 72.2805V74.139M152.303 72.2805L155.012 72.0915M175.014 105.702L176.211 104.757L176.117 103.591M155.012 72.0915V73.95M155.012 72.0915L174.983 76.911M174.983 76.911V78.3285M174.983 78.3285L175.739 78.8325L175.833 77.5725M174.983 78.3285L155.012 73.95M176.117 103.591L175.014 104.347M176.117 103.591L175.959 101.985M174.983 104.347L155.012 108.789V106.426M174.983 104.347V102.583M152.303 108.568V106.237M152.303 74.139V76.5015L155.012 76.344M152.303 74.139L155.012 73.95M174.983 80.124L175.644 80.4705L175.739 78.801M174.983 80.124V78.297M174.983 80.124V82.2345M174.983 80.124L155.012 76.344M155.012 73.95V76.344M175.959 101.985L175.014 102.583M175.959 101.985L175.865 100.063M175.613 82.5495L175.014 82.2345M175.613 82.5495L175.676 80.4705M175.613 82.5495L175.55 84.8805L174.983 84.6915M175.865 100.063L175.014 100.473M175.865 100.063L175.77 97.7955M174.983 102.583L155.012 106.395M174.983 102.583V100.473M155.012 106.426L152.303 106.269V103.465M155.012 106.426V103.623M174.983 98.1105L175.739 97.7955L175.644 95.3385M174.983 98.1105V100.473M174.983 98.1105L155.012 100.378M174.983 98.1105V95.496M175.55 87.369L174.983 87.2745M175.55 87.369V84.849M175.55 87.369V90.0465M174.983 87.2745V84.66M174.983 87.2745L155.012 85.92M175.644 95.3385L174.983 95.496M175.644 95.3385L175.581 92.724M174.983 95.496L155.012 96.9135M174.983 95.496V92.787M175.014 92.787L175.613 92.724L175.55 90.0465M175.55 90.0465L174.983 89.9835M152.303 79.3365V76.533M152.303 79.3365V82.5495M152.303 79.3365L155.012 79.242M174.983 100.473L155.012 103.591M155.012 79.242V76.3755M155.012 79.242V82.455M174.983 82.2345V84.66M174.983 82.2345L155.012 79.2105M152.303 82.5495V85.983M152.303 82.5495L155.012 82.455M155.012 82.455V85.92M155.012 82.455L174.983 84.66M180.842 127.185L180.999 126.082L181.094 124.476L181.188 122.523L181.251 120.192M181.22 120.223L181.283 117.64V114.868V112.002M181.251 109.072L181.314 112.002M181.188 106.174L181.251 109.104M181.094 103.339L181.188 106.143M180.999 100.788L181.094 103.371M180.842 98.394L180.999 100.756M180.684 96.4095L180.842 98.4255M180.684 96.378L180.527 94.7715L180.369 93.669M178.983 93.7635L178.322 91.8105L177.629 87.999M177.377 87.9045V87.747L177.314 87.495M177.219 84.8805L177.282 85.3845M177.219 84.5025V84.849M177.188 84.5025L176.999 82.392L176.589 79.2735M176.495 77.982L176.589 79.305M176.369 77.0055L176.526 77.9505M152.303 100.252V103.434L155.012 103.591M155.012 103.591V100.378M155.012 100.378V96.9135M155.012 100.378L152.303 100.284V96.8505M152.303 85.983V89.6055L155.012 89.5425M152.303 85.983L155.012 85.92M155.012 85.92V89.5425M152.303 96.8505V93.291M152.303 96.8505L155.012 96.9135M155.012 96.9135V93.291M174.983 90.015V87.306M174.983 90.015V92.7555L155.012 93.2595M174.983 90.015L155.012 89.574M155.012 89.5425V93.2595M152.303 89.574V93.2595H155.012M101.493 92.1255V91.5585L102.312 91.6215M102.344 92.157L101.493 92.094M104.454 77.604L101.493 77.7615V78.3285L104.202 78.234M101.493 90.519V91.59M101.493 90.519V89.007M101.493 90.519H102.186M101.493 78.297V79.368V80.88V82.455M101.493 89.007V87.432M101.493 89.007H102.155M103.824 79.3365L101.493 79.3995M101.493 87.432H102.249M101.493 87.432V84.912M101.493 82.455L102.942 82.392M101.493 82.455V84.912M103.415 80.8485L101.493 80.9115M101.493 84.912H102.501M113.117 65.697L113.621 65.2875L114.818 64.437M113.117 65.697L113.621 66.2955M113.117 65.697L109.305 69.477L112.676 72.2805M148.302 62.5785L150.98 64.437M150.98 64.437L152.681 65.697M150.98 64.437H145.436M117.495 62.5785L114.818 64.437M114.818 64.437H118.094M144.837 60.9405L148.302 62.547M118.566 62.106L117.495 62.547M102.533 94.5825L102.092 89.259H106.533L106.596 90.078M102.123 89.2275L102.564 83.904L106.943 84.66L106.533 89.2275M103.068 96.504L102.564 94.5825L103.068 94.5195M113.621 71.3355L112.676 72.2805M112.676 72.2805L112.518 72.5325M102.533 83.9355L103.95 78.738L106.218 73.8555M107.226 83.5575L106.911 84.66M109.305 69.4455L106.25 73.824M107.226 79.872L103.95 78.7065M108.045 74.895L106.218 73.824M155.547 70.2015L156.492 69.4455M157.374 70.7055L156.524 69.4455L153.909 66.831L152.712 65.6655M153.909 70.17V66.8625M113.621 72.4695V65.256M103.068 130.965V131.28H113.778M103.068 130.965V130.02M103.068 130.965H113.778M103.068 90.3615V90.0465H107.258M103.068 90.3615V91.275M103.068 90.3615H107.258M103.068 130.02V128.508M103.068 130.02H114.345M103.068 91.275V92.7555M103.068 91.275H107.258M103.068 92.7555V94.8345H107.258M103.068 92.7555H107.258M103.068 128.508V126.429M103.068 128.508H114.345M103.068 123.94V126.46H114.345M103.068 123.94V120.979M103.068 123.94H114.345M103.068 97.386V94.803M103.068 97.386V100.315M103.068 97.386H107.258M103.068 100.315V103.591M103.068 100.315H107.258M103.068 103.591V107.056H107.888M103.068 103.591H107.258M103.068 117.672V120.948H114.345M149.184 120.948H153.059M103.068 114.238V117.703H114.345M149.184 117.703H153.059M103.068 110.647V107.088M103.068 110.647H114.345M103.068 110.647V114.207H114.345M149.184 110.647H151.452M149.184 114.207H153.059M153.059 121.767V118.995M153.059 118.995V114.868M153.059 118.995H153.909M153.059 114.868V112.285M153.059 114.868H153.909M147.767 173.679H148.019V175.38M147.767 175.38H148.019M148.019 175.38V176.955M148.019 176.955V178.593M148.019 176.955H147.767M148.019 178.593V179.191M148.019 178.593H147.767M147.767 179.223H148.019M116.046 150.778H115.479M115.479 150.778V151.125M115.479 150.778V149.109H116.046M116.046 151.125H115.479M115.479 151.125V152.385M116.046 154.023H115.479M116.046 152.385H115.479M116.046 157.299H115.479V158.968M116.046 158.968H115.479M116.046 162.244H115.479M115.479 162.244V160.575M116.046 160.575H115.479M116.046 165.52H115.479V167.19M116.046 167.19H115.479M115.479 167.19V167.505M116.046 167.473H115.479V168.796M116.046 168.796H115.479M115.479 168.796V170.466M116.046 179.223H115.479V178.782M116.046 149.014H113.778V148.668M114.345 130.933H113.778V132.855M114.345 132.855H113.778M113.778 132.855V143.628H115.794L116.046 145.297M113.778 143.596V148.636L116.046 148.699M125.465 161.394L133.056 161.236L140.301 161.142V160.984M125.465 161.394L124.047 162.843M125.465 161.394V161.236M140.301 160.984L133.056 161.079M140.301 160.984V152.29L141.75 153.991M141.782 162.559L140.333 161.142M125.465 161.236L133.056 161.079M125.465 161.236L124.047 162.654M125.465 161.236V152.574M141.782 181.869H141.183M124.047 183.286H124.614M141.782 166.182H141.183M147.861 143.502L147.767 144.258M124.047 164.764H124.614M141.782 181.68H141.183M144.9 187.161H141.782V186.814M144.9 187.161V186.814M144.9 187.161L147.767 183.097V182.845M118.629 187.161L116.046 183.475V183.223M118.598 186.814V187.161H124.047V186.814M118.598 186.814H124.047M118.598 186.814V186.058M144.9 186.814H141.782M144.9 186.814V186.058M144.9 186.814L147.767 182.845M141.782 166.465H141.183M124.047 183.097H124.614M124.047 165.111H124.614M142.475 120.444V120.381L143.073 120.444M123.354 120.444V120.381M141.782 181.27H141.183M141.782 166.969H141.183M124.047 182.593H124.614M141.782 180.609H141.183M124.047 186.814V186.058M118.598 186.058V184.861M118.598 186.058H124.047M116.046 183.223L118.629 186.783M116.046 183.223V182.625M141.782 186.814V186.058M144.9 186.058L147.767 182.278M144.9 186.058V184.861M144.9 186.058H141.782M147.767 182.845V182.278M124.047 165.709H124.614M124.457 120.444V120.286M141.372 120.444V120.286M141.782 167.694H141.183M141.782 179.758H141.183M124.047 181.837H124.614M141.782 168.639H141.183M125.811 120.444V120.255L124.457 120.318L123.354 120.412L122.756 120.475M140.018 120.444V120.255M140.018 120.255L138.411 120.192M140.018 120.255L141.372 120.318L142.475 120.412M124.047 166.56H124.614M141.782 178.75H141.183M141.782 169.71H141.183M124.047 180.829H124.614M127.355 120.444V120.192L125.78 120.255M138.411 120.444V120.192M138.411 120.192L136.71 120.129M141.782 177.553H141.183M141.782 170.907H141.183M147.767 182.278V181.428M116.046 182.625L118.629 186.058M116.046 182.625V181.774M118.598 184.861V183.349H124.047V184.861M118.598 184.861H124.047M124.047 186.058V184.861M144.9 184.861H141.782M144.9 184.861V183.349M144.9 184.861L147.767 181.428M141.782 186.058V184.861M124.047 167.631H124.614M141.782 172.198H141.183M141.782 176.293H141.183M141.782 174.939H141.183M141.782 173.584H141.183M129.119 120.444V120.129M136.679 120.444V120.129M129.119 120.16L127.355 120.223M129.15 120.16L131.009 120.097V120.444M136.679 120.16L134.82 120.097M134.82 120.097V120.444M134.82 120.097H132.899M132.899 120.097V120.444M132.899 120.097H130.977M132.899 120.444H145.247M132.899 120.444V152.416H133.245M132.899 120.444H118.251L117.432 152.259M124.047 179.601H124.614M147.767 143.502L155.169 143.313V142.966M124.047 168.954H124.614M124.047 178.215H124.614M124.047 170.34H124.614M124.047 171.915H124.614M124.047 176.703H124.614M124.047 173.521H124.614M124.047 175.128H124.614M141.782 184.861V183.349H144.9M116.046 181.774L118.629 184.83M116.046 181.774V180.609M144.9 183.349L147.767 180.325M147.767 181.428V180.325M147.767 180.325V179.002M149.184 121.672L155.169 121.861V124.539M116.046 180.609V179.254L118.629 181.459M116.046 180.609L118.629 183.318M147.767 179.002L144.9 181.459M147.767 179.002V177.49M118.598 181.459V183.318M118.598 181.459H124.047M118.598 181.459V179.349H124.047V181.459M144.9 181.459V183.318M144.9 181.459H141.782M144.9 181.459V179.349M155.169 124.539L146.853 124.35M155.169 124.539V137.926M146.853 124.35V138.147L148.365 139.501M146.853 124.35L149.184 122.901M155.169 142.966V137.926M155.169 142.966L147.767 143.155M155.169 137.926L146.853 138.115M136.332 123.342V123.027L136.427 122.712L136.521 122.46L136.71 122.208M139.766 123.625L139.671 123.94M138.443 123.373V123.279L138.348 123.121L138.191 123.027L138.033 122.964L137.876 123.027L137.718 123.121L137.624 123.279L137.561 123.373M128.174 123.373V123.279L128.079 123.121L127.922 123.027L127.764 122.964L127.607 123.027L127.449 123.121L127.355 123.279L127.292 123.373M136.521 124.192L136.427 123.94L136.332 123.625V123.31M139.514 124.192L139.356 124.444L139.167 124.633M137.183 124.854V124.791M137.183 124.854L137.435 124.948M137.183 124.854L136.931 124.665M137.183 124.791L137.435 124.948M137.183 124.791L136.931 124.633L136.742 124.444L136.553 124.192M128.615 124.791V124.854L128.867 124.665M128.615 124.791L128.3 124.948M128.615 124.791L128.867 124.633L129.056 124.444M126.914 124.791V124.854L127.166 124.948M126.914 124.791L127.166 124.948M126.914 124.791L126.662 124.633M126.662 124.633L126.473 124.444L126.284 124.192M126.662 124.633L126.914 124.822M138.884 124.791V124.854L138.632 124.948M138.884 124.791L138.632 124.948M138.884 124.791L139.136 124.633L138.884 124.822M127.166 124.948L127.481 125.043M128.331 124.948L128.079 125.011M128.331 124.948L128.646 124.854M128.331 124.948L128.079 125.043M138.632 124.948L138.317 125.011M138.632 124.948L138.317 125.043M137.435 124.948L137.75 125.043V124.98L137.435 124.917M128.079 125.043V124.98L127.764 125.043M128.079 125.043H127.764M127.481 125.043V124.98L127.166 124.917M127.481 125.043H127.796M127.764 125.043L127.449 124.98M128.898 124.633L129.087 124.444L129.245 124.192L129.402 123.94M126.441 122.208L126.252 122.46L126.158 122.712L126.063 123.027V123.342V123.657M127.166 121.735L126.914 121.83L126.662 122.019L126.473 122.208M127.166 121.704L127.481 121.609H127.796M128.646 121.798L128.331 121.704L128.079 121.609H127.764M129.056 122.208L128.867 122.019L128.615 121.83M129.402 122.712L129.245 122.46L129.087 122.208M126.063 123.31V123.625L126.158 123.94L126.252 124.192L126.441 124.444M129.213 124.192L129.371 123.94L129.434 123.625L129.497 123.31M129.434 123.657L129.497 123.342L129.434 123.027L129.371 122.712M138.033 125.043L137.718 124.98M138.033 125.043L138.348 124.98V125.043H138.033ZM138.033 125.043H137.718M139.64 123.94L139.482 124.192M136.742 122.208L136.931 122.019L137.183 121.83L137.435 121.735M138.663 121.704L138.348 121.609H138.033M138.632 121.704L138.884 121.798M138.884 121.83L139.136 122.019L139.325 122.208M139.356 122.208L139.514 122.46L139.671 122.712M139.64 122.712L139.734 123.027M139.766 123.027V123.342V123.657M138.065 121.609H137.75L137.435 121.704M141.782 181.459V183.318M141.782 181.459V179.349H144.9M124.047 181.459V183.318M144.9 179.349L147.767 177.49M147.767 177.49V175.821M116.046 179.286V177.711L118.629 179.38M114.345 135.532V134.871L117.464 152.29M114.345 135.501L115.794 143.596M147.767 143.061L148.365 139.501M147.767 143.061V174.372M147.767 143.061L144.9 159.031L146.066 152.448M148.365 139.501L146.034 152.448M147.767 175.821L144.9 177.018M147.767 175.821V174.372M144.9 177.049V179.38M144.9 177.049V174.718M144.9 177.049H141.782M116.046 175.978V177.679M116.046 175.978V174.466M116.046 175.978L118.629 177.049M118.598 177.049V179.38M118.598 177.049V174.781M118.598 177.049H124.047M133.056 161.079L133.245 152.416M118.283 120.444L114.345 120.601V134.839M141.782 162.339L140.333 160.984M133.245 152.416L140.301 152.259M125.465 152.574L124.047 154.275V174.624M125.465 152.574L132.93 152.416M149.184 122.869V120.601L145.247 120.444M145.247 120.444L146.066 152.416M116.046 174.466V144.604M116.046 174.466L118.629 174.781M147.767 174.372L144.9 174.718M144.9 174.718L141.782 174.624M144.9 174.718V159M141.782 177.049V179.38M141.782 177.049V174.624M118.598 174.781V159.031M118.598 174.781L124.047 174.624M124.047 177.049V174.624M124.047 177.049V179.38M118.598 159.031L116.015 144.636M118.598 159.031L117.432 152.29M141.782 174.624V153.991M122.63 141.58V141.769V142.273M128.93 141.675L128.867 142.242V142.084M128.93 141.706V141.549M128.93 141.549L128.867 142.116L128.709 142.683M128.93 141.549L128.867 141.045M128.741 142.809L128.898 142.242M128.741 142.809L128.489 143.313M128.741 142.809V142.651L128.489 143.155M122.787 142.809L122.63 142.242V142.084L122.787 142.651M122.787 142.809V142.651M122.787 142.809L123.039 143.313M122.787 142.651L123.039 143.155V143.313M123.039 143.313L123.354 143.754M128.489 143.313L128.174 143.754V143.596L128.489 143.155M128.489 143.313V143.155M123.354 143.754V143.596M123.354 143.754L123.764 144.1M127.764 144.132L128.174 143.785M127.764 144.132L127.323 144.478M127.764 144.132V143.974M127.323 144.478L126.882 144.667M127.323 144.478V144.321M127.764 143.974L127.323 144.321M127.764 143.974L128.174 143.628M124.173 144.478L123.732 144.132V143.974L123.323 143.628M124.205 144.321V144.478L124.709 144.667M124.205 144.321L123.764 143.974M124.205 144.321L124.709 144.51M124.709 144.667V144.51M124.709 144.667L125.213 144.825M126.882 144.667L126.315 144.825M126.882 144.667V144.51M127.323 144.321L126.882 144.51M124.709 144.51L125.213 144.667V144.825M125.213 144.825L125.78 144.888M126.315 144.825L125.748 144.888V144.73M126.315 144.825V144.667M126.882 144.51L126.315 144.667M125.213 138.493L125.78 138.43M124.709 138.619L125.213 138.462M124.205 138.84L124.709 138.651M123.732 139.123L124.173 138.808M123.354 139.533L123.764 139.123M123.354 139.564L123.039 140.005L122.787 140.509M122.787 140.478L122.63 141.045V141.549V142.116M123.354 143.628L123.039 143.187M126.315 144.667L125.748 144.73M128.898 141.076L128.741 140.509L128.489 140.005M128.489 139.974L128.174 139.533L127.764 139.123M127.323 138.84L127.764 139.155M126.882 138.619L127.323 138.808M126.882 138.651L126.315 138.493L125.748 138.43M125.748 144.73L125.181 144.667M147.767 154.653H148.019V154.212M147.767 157.299H148.019V158.968M147.767 158.968H148.019M148.019 158.968V160.575M148.019 160.575V162.244M148.019 160.575H147.767M148.019 162.244V162.811H147.767M148.019 162.244H147.767M147.767 165.52H148.019V167.19M147.767 167.19H148.019M148.019 168.733V170.434M148.019 168.733H147.767M148.019 170.434V170.875M148.019 170.434H147.767M125.874 207.699L125.78 199.099M128.079 216.802H128.237V220.236V227.071V227.04V224.835V224.772M128.079 216.834V215.416H128.016M128.079 220.425V219.07H128.174V220.393M128.079 215.385L128.142 214.975L128.3 214.566L128.615 214.219L129.056 214.03L129.497 213.936H136.332M128.016 215.416V220.456M128.016 215.416L128.079 215.101L128.142 214.849L128.3 214.597L128.489 214.345L128.678 214.188L128.93 214.03L129.182 213.967L129.497 213.904M139.955 207.793L138.6 199.698M139.955 207.793L140.018 207.856V208.014L140.081 208.077V208.266M139.955 207.793V207.888L140.018 207.951V208.266L139.703 228.237M138.6 199.698H138.411L136.206 202.911L135.45 204.013L134.631 205.084L133.686 205.935M138.6 199.698L139.514 198.343L140.018 197.43L140.081 197.682V199.099M136.332 213.936L136.584 213.999L136.836 214.062L137.088 214.219L137.34 214.377L137.498 214.629L137.655 214.881L137.718 215.133L137.781 215.448M136.332 213.936H132.899V205.935M137.75 220.425V215.385M127.355 199.698H127.166M127.166 199.698L125.811 207.793V207.888L125.748 207.951V208.266M127.166 199.698L126.221 198.186M125.748 208.266V221.905M125.748 208.266H124.583M125.748 221.905L126.252 221.401L126.819 220.96L127.418 220.645L128.111 220.393V220.551M125.748 221.905L125.559 222.157M140.144 208.266L140.049 197.43H139.986M129.465 199.698H128.268V199.855L128.363 200.422L128.552 200.926L128.804 201.43L129.465 202.533L129.812 203.1L130.253 203.604H130.316M130.347 203.572L130.41 203.478L130.725 203.037L130.914 202.596L131.072 202.155L131.166 201.714L131.072 201.21L130.82 200.895L130.473 200.706L130.379 200.643M132.08 205.935H133.655H132.899M134.663 201.619L134.757 201.178L134.946 200.863L135.198 200.674L135.387 200.611L135.545 200.422L136.049 199.855L136.238 199.698H137.435V199.603L137.277 199.414L137.088 199.351H137.025L136.773 199.414L136.458 199.572L136.206 199.729M132.867 195.981H125.37V196.831M132.867 195.981H140.459V196.831M132.867 195.981V196.831M125.37 196.831H140.459M125.37 196.831L125.78 197.493M140.459 196.831H132.867M140.459 196.831L140.049 197.493M129.497 199.729L129.749 199.918L130.19 200.422L130.347 200.611L130.41 200.548L131.009 200.296L131.859 200.139L133.025 200.076L133.592 200.139L134.159 200.202L134.726 200.296L135.167 200.454L135.419 200.611M137.403 199.698L137.466 199.887L137.372 200.391L137.183 200.895L136.994 201.399L136.584 202.06L136.175 202.722L135.671 203.383L135.419 203.572L134.915 204.486L134.505 205.084L133.938 205.683L133.623 205.935M127.386 199.666L129.15 202.249L130.001 203.509L130.946 204.706L131.513 205.368L132.111 205.935L131.765 205.62L131.418 205.21L130.851 204.391L130.347 203.541M129.497 199.698L129.339 199.603L128.993 199.414L128.741 199.351H128.678L128.489 199.414L128.331 199.572L128.268 199.729M123.197 228.237H124.299M124.299 228.237V229.56M124.299 228.237L124.614 208.266M124.299 228.237H125.402M123.197 229.717V228.268M142.475 229.906V228.237H142.412V229.906M140.868 228.237H142.443M140.868 228.237V229.591V229.434M140.868 228.237H139.703M140.868 228.237L141.183 208.266M125.402 229.402V227.071H129.276M139.703 228.237V227.796L139.64 228.142V229.402M139.703 228.237V229.402M140.364 258.256L140.679 258.067L141.624 257.374L142.475 256.555L143.294 255.642L143.987 254.697L144.648 253.752L145.152 252.681L145.656 251.578L146.003 250.413L146.255 249.31L146.412 248.113L146.475 246.948V245.751L146.318 244.585L146.066 243.42L145.719 242.254L145.31 241.152L144.743 240.081L144.144 239.073L144.081 238.978M121.023 239.262L120.834 239.514L120.267 240.585L119.763 241.656L119.354 242.758L119.039 243.924L118.881 245.089L118.787 246.286V247.452L118.881 248.649L119.07 249.814L119.385 250.98L119.795 252.082L120.299 253.153L120.897 254.224L121.559 255.169L122.315 256.083L122.378 256.177M140.301 258.288L140.711 258.036L141.624 257.343L142.475 256.524L143.294 255.61L143.987 254.665L144.648 253.72L145.215 252.649L145.656 251.547L146.003 250.381L146.255 249.279L146.444 248.082L146.507 246.916L146.444 245.719L146.286 244.554L146.034 243.388L145.719 242.223L145.278 241.12L144.774 240.049L144.113 239.041L144.05 238.947M121.527 254.382L121.464 254.287L120.866 253.279L120.299 252.208L119.889 251.106L119.543 250.003L119.354 248.838L119.196 247.672L119.133 246.507L119.228 245.341L119.385 244.176L119.7 243.073L120.047 241.971L120.488 240.868L121.086 239.86L121.338 239.419M140.963 257.595L141.467 257.185L142.317 256.429L143.136 255.516L143.829 254.602L144.428 253.594L144.995 252.523L145.436 251.452L145.782 250.287L146.097 249.184L146.255 248.019L146.318 246.822L146.255 245.656L146.097 244.491L145.845 243.325L145.53 242.16L145.089 241.089L144.585 240.018L143.924 239.01V238.947M143.892 239.073L144.239 239.64L144.806 240.648L145.247 241.75L145.656 242.853L145.971 243.955L146.16 245.121L146.255 246.318L146.192 247.483L146.097 248.649L145.908 249.814L145.593 250.98L145.184 252.082L144.68 253.153L144.081 254.161L143.42 255.106L142.664 256.02L141.813 256.87L141.057 257.532M122.094 255.579L121.937 255.39L121.244 254.445L120.645 253.437L120.141 252.366L119.7 251.295L119.354 250.129L119.102 249.027L119.007 247.83L118.944 246.664L119.007 245.499L119.165 244.333L119.417 243.168L119.763 242.002L120.204 240.931L120.771 239.86L121.181 239.262M128.205 224.457H127.008V225.717M127.008 225.717H128.205M127.008 225.717V225.78M138.569 224.457H137.151H137.088M138.537 225.717V224.457L138.6 224.52V225.78M138.537 225.717L138.6 225.78M138.537 225.717H137.183M138.6 225.78H137.183M128.237 225.78H127.04M137.151 225.591V224.488M129.434 222.85V222.031M130.946 222.85V221.779M134.379 222.882V221.811H130.946L131.009 222.126L131.072 222.378L131.229 222.567L131.387 222.819L131.576 222.976L131.828 223.134M131.796 223.165V223.102M131.796 223.165V223.228L131.733 223.386V223.984M131.796 223.165H133.497V223.228L133.434 223.386V223.984M133.497 223.102L133.749 222.945L133.938 222.787L134.096 222.535L134.253 222.346L134.348 222.094V221.779M133.497 223.102V223.953M133.497 223.102V223.197V223.134M128.237 220.393H128.142M128.237 220.488H128.142M128.111 225.78V227.103M128.111 220.488V224.457M131.796 218.881V218.377L131.859 218.314H132.71M131.796 218.881H132.647M131.796 218.881V220.236M132.647 218.881V218.377L132.71 218.314M132.647 218.881V220.236M132.647 218.881H133.497M132.647 221.433V221.37M132.71 218.314H133.56V218.377L133.497 218.44V218.881M132.647 220.236V221.401M132.647 220.236H128.205M132.647 220.236H137.088M132.647 221.401V221.464M133.875 220.236V219.732M133.875 220.236V220.141V219.543M133.875 219.543V220.11M133.875 219.543H133.718M133.718 218.881V219.48V220.236V219.417M133.718 218.881H133.56M139.797 221.811L139.388 221.401L138.821 220.96L138.159 220.645L137.498 220.393M137.529 220.393L137.12 220.33M137.529 220.393V224.457V220.488M137.529 220.393V220.551V220.488M137.529 220.488H137.12M137.529 227.071V225.78M133.497 218.881V220.236M133.56 220.236V218.913M133.56 218.944V218.346M135.923 222.094V222.031M137.088 220.236L137.246 220.803M137.088 220.236V227.071M132.678 221.401H135.387H135.482L135.576 221.464L135.671 221.527L135.765 221.59L135.828 221.685L135.891 221.779L135.954 221.874V221.968M135.923 222.85V221.937M137.246 227.071V225.906M137.246 225.937L137.088 225.433V224.016L137.246 224.457V220.771M132.899 205.935V203.509L132.836 202.753V200.076M137.75 220.456V215.416M132.867 196.831V200.107H133.025L133.592 200.17L134.159 200.233L134.726 200.328L135.167 200.485L135.419 200.643M125.055 240.427L124.551 240.333L123.638 240.144L122.787 239.892L121.968 239.64L121.275 239.388L120.677 239.073L120.11 238.758L119.7 238.443L119.354 238.096L119.102 237.75L118.944 237.435L118.881 237.088L118.944 236.836M139.325 240.49L139.923 240.333L140.837 240.144L141.75 239.892L142.506 239.64L143.262 239.388L143.861 239.073L144.428 238.758L144.869 238.443L145.278 238.096L145.53 237.75L145.688 237.435L145.751 237.088V236.742L145.688 236.584L145.625 236.143V236.08M118.346 234.726V235.072L118.44 235.419L118.629 235.765L118.944 236.112L119.291 236.427L119.795 236.773L120.362 237.088L121.023 237.34L121.779 237.655L122.598 237.907L123.512 238.159L124.457 238.348L125.055 238.443M139.356 238.474L140.018 238.38L141.026 238.191L141.939 237.939L142.758 237.687L143.514 237.372L144.207 237.12L144.774 236.805L145.278 236.458L145.688 236.143L146.034 235.797L146.223 235.45L146.318 235.104V234.694M128.268 224.079V222.882M128.268 224.079L128.331 223.827L128.426 223.638L128.583 223.48L128.741 223.417H128.835M128.268 224.079L128.205 224.772L128.268 224.677V224.583L128.331 224.488L128.426 224.394L128.489 224.331L128.583 224.268L128.678 224.205H128.835V224.362L128.898 224.457L128.961 224.52L129.056 224.583L129.119 224.677L129.276 224.74L129.371 224.835M131.135 223.953V223.386M128.835 223.417H131.135M128.835 223.417V224.236M136.805 224.079L136.742 223.827L136.647 223.638L136.458 223.48L136.364 223.417H136.269H133.938M136.773 227.04V227.103M129.339 224.835V225.276M129.339 225.276H135.576M135.639 224.835L135.797 224.772L135.891 224.677L135.986 224.614L136.08 224.52L136.143 224.457L136.206 224.362L136.269 224.299V224.205M135.639 224.835V225.465L135.576 226.032V229.056M135.639 224.835L135.576 225.276M133.97 223.984V223.417V222.945L134.033 222.85H136.836M133.97 223.953H131.103L131.166 223.386M135.576 225.276V225.622M135.576 225.622V229.245M135.576 229.056L136.742 229.119L137.844 229.213L138.915 229.308L139.986 229.465L140.931 229.623L141.845 229.78L142.695 229.969L143.451 230.158L144.144 230.347L144.743 230.536L145.247 230.788L145.656 231.04L145.971 231.292L146.223 231.544L146.318 231.796V232.048L146.223 232.3L146.034 232.615L145.782 232.867L145.373 233.056L144.869 233.308L144.302 233.56L143.609 233.749L142.853 233.938L142.034 234.127L141.12 234.285L140.175 234.442L139.356 234.6M135.576 229.056V229.245M135.576 229.245H134.757M134.757 229.245L134.663 231.828M131.072 225.654H130.883L130.725 225.748L130.568 225.843L130.41 226L130.316 226.189L130.253 226.378L130.19 226.63L130.127 226.819L129.969 231.796M125.055 238.065L124.362 237.907L123.417 237.718L122.567 237.529L121.748 237.214L120.992 236.962L120.33 236.647L119.763 236.332L119.322 236.017L118.913 235.671L118.598 235.324L118.44 234.978L118.346 234.631V234.537V232.017M139.356 238.065L140.112 237.907L141.057 237.718L141.971 237.529L142.821 237.214L143.514 236.962L144.207 236.647L144.774 236.332L145.278 236.017L145.688 235.671L146.003 235.324L146.192 234.978L146.286 234.631V234.474V231.954M125.055 234.6L124.362 234.537L123.417 234.348L122.504 234.19L121.685 234.001L120.992 233.812L120.33 233.623L119.732 233.371L119.291 233.182L118.881 232.93L118.629 232.678L118.44 232.426L118.377 232.111V231.859L118.535 231.607L118.724 231.355L119.07 231.103L119.511 230.851L120.015 230.662L120.614 230.41L121.307 230.221L122.063 230.032L122.913 229.843L123.858 229.686L124.803 229.528L125.874 229.371L126.977 229.276L128.079 229.182L129.245 229.119M128.237 231.828L128.174 230.316M128.174 230.316H126.567L126.473 232.899M128.174 230.316L128.111 231.828H136.332L136.395 230.316H138.002H138.254L138.506 230.41L138.695 230.505L138.884 230.662L139.073 230.82L139.23 231.072L139.325 231.261L139.388 231.513V231.765M123.701 249.688V250.003L123.795 250.917L123.984 251.83L124.236 252.744L124.646 253.563L125.087 254.382L125.685 255.138L126.284 255.831L126.977 256.429L127.796 256.933L128.615 257.374L129.465 257.721L130.379 257.91L131.324 258.067L132.237 258.13L133.182 258.067L134.096 257.91L135.009 257.721L135.86 257.374L136.679 256.933L137.498 256.429L138.191 255.831L138.789 255.138L139.388 254.382L139.829 253.563L140.238 252.744L140.49 251.83L140.679 250.917L140.742 250.413M125.118 240.774L124.299 241.53L123.543 242.286L122.882 243.136L122.315 244.05L121.811 244.995L121.401 246.003L121.086 247.011L120.897 248.082L120.803 249.153V249.216M143.64 250.098V249.153L143.546 248.082L143.388 247.011L143.073 246.003L142.664 244.995L142.16 244.05L141.561 243.136L140.9 242.286L140.207 241.53L139.356 240.774V234.631L139.451 232.552M130.505 239.356H130.19M130.19 239.356L130.127 239.451M130.19 239.356L130.127 237.75M132.521 239.356H132.206M132.206 239.356V239.451M132.206 239.356V238.348M133.151 239.356H132.836M135.261 239.356H134.946M127.859 239.356H127.701L127.512 239.262L127.418 239.104M127.859 239.356H128.048L128.205 239.262L128.363 239.104L128.426 238.915M127.859 239.356V239.514L127.701 239.451L127.512 239.388L127.355 239.136M136.08 239.356H135.765M135.765 239.356V239.451M135.765 239.356V238.789M131.261 239.388L131.576 239.325L131.733 239.23L131.796 239.073V239.23L131.702 239.325L131.607 239.419L131.292 239.482H131.135L130.946 239.388L130.851 239.293L130.788 239.199M131.292 239.451V239.356H131.135L130.946 239.262L130.851 239.167L130.788 239.01M130.788 239.01V239.167L130.725 238.915V238.758M130.788 239.01L130.725 238.821V238.632M136.395 239.199L136.49 239.293L136.742 239.356V239.451M128.615 238.695L128.678 238.947L128.772 239.104L128.961 239.293L129.276 239.356V239.451M129.938 238.726L129.875 239.041L129.686 239.23L129.497 239.325L129.308 239.388M128.048 239.073L128.111 238.915L128.048 238.821L127.985 238.758L127.827 238.663M137.183 239.01L137.12 239.167L137.025 239.325L136.868 239.388H136.71M131.544 238.726V238.821V238.915M131.544 238.726V238.884V239.073M131.544 238.726V238.285M136.742 238.821L136.836 238.884L136.899 238.947V239.01V239.104V239.041L136.836 238.978L136.742 238.915M133.403 238.695L133.466 238.947L133.56 239.104L133.749 239.293L134.064 239.356V239.451M131.859 238.852L131.796 239.041M134.726 238.726L134.663 239.041L134.474 239.23L134.285 239.325L134.096 239.388M136.742 238.947V238.852L136.647 238.789M129.276 238.348L129.119 238.411L128.961 238.506L128.898 238.6V238.695M129.276 238.348L129.371 238.411L129.465 238.474L129.56 238.569L129.623 238.726V238.884M129.276 238.348V238.506L129.119 238.569L128.961 238.632L128.898 238.789V238.884M128.93 238.726V238.884M135.261 238.6V238.758M135.261 238.758V238.947M135.261 238.758V238.852M129.276 239.23L129.434 239.167L129.528 239.073L129.591 238.978L129.654 238.884M129.276 238.474H129.371L129.465 238.537L129.56 238.695L129.623 238.852V238.758M128.93 238.852L128.993 239.01L129.056 239.104L129.15 239.199H129.308M132.206 238.348H132.048M132.206 238.348V238.506H132.048M132.048 238.348V238.506M132.048 238.348V238.254M132.71 238.348H132.521V238.506M132.521 238.506H132.71V238.254H132.521V237.75H132.206M132.521 238.506V239.451M134.064 238.348L133.907 238.411L133.812 238.506L133.718 238.6V238.695M134.064 238.348L134.159 238.411L134.253 238.474L134.348 238.569L134.411 238.726V238.884M134.064 238.348V238.506L133.907 238.569L133.749 238.632L133.686 238.789V238.884M133.718 238.726V238.884M134.064 239.23L134.222 239.167L134.316 239.073L134.379 238.978L134.442 238.884M134.064 238.474H134.159L134.253 238.537L134.348 238.695L134.411 238.852V238.758M133.718 238.852L133.781 239.01L133.844 239.104L133.938 239.199H134.096M136.647 238.915V238.821L136.458 238.663L136.395 238.569L136.332 238.474M136.647 238.915L136.742 238.978M136.647 238.915L136.458 238.758L136.395 238.663L136.332 238.569L136.395 238.411L136.49 238.317L136.647 238.254L136.742 238.191M135.293 238.632L135.387 238.474L135.482 238.411L135.576 238.348V238.506H135.482L135.387 238.6L135.293 238.758M135.765 238.978V238.821V238.569L135.702 238.474L135.639 238.411H135.576L135.513 238.348M135.765 238.978V239.482H136.08V238.663V238.506L135.986 238.348M135.765 238.978V238.663L135.702 238.6L135.639 238.537L135.576 238.474H135.513M127.386 238.033L127.449 238.191L127.544 238.348L127.859 238.663V238.758L127.544 238.443L127.449 238.348L127.386 238.159M136.773 238.348L136.71 238.411H136.647V238.474M136.773 238.348L136.836 238.411H136.899L136.994 238.506M136.773 238.348V238.506H136.679V238.569H136.616L136.679 238.474M136.994 238.506L137.088 238.348M136.994 238.506V238.6L136.899 238.537L136.836 238.474H136.773M130.757 238.254V238.6V238.758V238.254ZM130.757 238.254H131.072M132.048 238.506V238.254M132.048 238.254H132.206M127.733 238.065V237.97H127.796L127.859 237.907V238.065M127.764 238.065L127.701 238.159M132.867 239.451V239.356V238.254H133.182M127.859 237.876L127.953 237.939H128.016L128.111 238.096V238.191L128.363 238.002L128.174 237.844L128.016 237.75H127.859M127.859 238.065H127.953L128.016 238.128L128.111 238.222M127.859 238.065H127.796L127.733 238.128L127.67 238.191M128.268 237.97L128.111 238.128M134.978 239.451V239.356V238.254H135.293M132.773 237.844L132.836 237.939L132.899 238.002H132.993V238.159L132.899 238.096L132.836 238.033L132.773 237.97V237.907M133.214 237.907L133.151 237.97L133.088 238.033H132.993M130.127 237.75V239.482M130.127 237.75H130.442L130.505 239.451M132.206 238.254V238.096V237.75M132.206 238.254V237.75M129.843 236.364H129.434M129.843 236.364H130.19L130.505 236.269L130.757 235.954V235.797M129.843 236.364V236.458H129.434M129.434 236.364V236.458M129.434 236.364V234.789M132.363 236.364H132.111M132.111 236.364V236.458M132.111 236.364L131.954 236.269M132.899 236.364H132.584M132.899 236.364L133.056 235.293M132.899 236.364L132.836 236.458M133.718 236.364H133.403M133.718 236.364L134.064 235.293M133.718 236.364V236.458M133.403 236.364V236.458M133.403 236.364L133.056 235.293M134.568 236.364H134.253M134.253 236.364V236.458M134.253 236.364L134.064 235.293M131.513 236.332H131.702L131.954 236.238V236.332M132.111 236.458H132.458L132.206 236.206M132.111 236.458L131.954 236.364L131.702 236.458L131.45 236.521L131.513 236.364H131.324L131.166 236.269L131.072 236.112V236.017M132.206 236.206V236.049L132.3 235.986V236.08M132.206 236.206L132.3 236.112L132.363 236.049L132.206 235.797L132.111 235.891L132.017 235.954M132.3 235.954V236.017M131.513 235.734L131.418 235.828L131.355 235.891V235.954V236.112M131.513 235.734L131.607 235.828L131.765 235.986V236.143M131.513 235.734V235.828L131.607 235.986L131.765 236.143M131.355 236.112V236.175L131.418 236.238H131.513M131.355 236.112V236.049L131.418 235.954L131.513 235.86M131.765 236.143L131.67 236.206H131.513M133.056 235.293V235.387M133.403 236.458H133.718M133.403 236.458L133.056 235.387M133.056 235.387L132.867 236.458H132.552L132.867 234.789H133.182M134.064 235.293V235.387M133.718 236.458L134.064 235.387M134.253 236.458H134.568L134.253 234.789M134.253 236.458L134.064 235.387M130.347 235.104L130.442 235.293L130.505 235.545V235.639L130.442 235.387L130.347 235.23L130.095 235.135L129.906 235.072M130.347 235.104V235.261M130.347 235.104L130.095 235.009H129.906M131.355 235.576V235.482L131.198 235.293L131.135 235.135M132.017 235.104L131.954 235.261L131.891 235.419L131.733 235.576M131.765 235.545L131.702 235.639M131.702 235.639L131.859 235.828L132.017 235.923M131.702 235.639L131.891 235.482L131.954 235.387L132.017 235.23M129.717 235.072L129.78 234.978H129.875V235.072M131.481 235.167V235.104L131.544 235.041H131.607V235.135L131.544 235.198H131.481V235.261H131.418M131.513 235.135L131.45 235.23L131.513 235.387L131.576 235.45M131.702 235.23V235.135V235.072L131.639 235.009H131.576M131.702 235.23V235.293L131.639 235.356L131.544 235.45M131.702 235.23L131.639 235.167H131.576V235.104M129.875 235.104H129.717M129.749 235.104V236.175M129.749 236.143H129.938H130.19L130.379 236.049L130.473 235.86V235.671M129.434 236.458V234.789M129.434 234.789H129.843L130.253 234.852L130.599 235.041L130.757 235.356L130.82 235.671M139.388 231.765L139.451 232.584L139.388 231.733M139.388 231.765L139.293 234.285M139.356 240.805V241.75L139.293 234.285M126.567 230.284H126.315L126 230.379L125.748 230.536L125.559 230.694L125.402 230.946L125.244 231.198L125.15 231.45V231.702L125.055 234.222M139.293 234.285V233.97L139.199 233.718L139.104 233.466L138.915 233.277L138.726 233.119L138.474 232.962L138.159 232.899L137.907 232.836M138.002 230.284L137.907 232.867H126.473L126.221 232.93L125.906 232.993L125.654 233.151L125.465 233.308L125.307 233.497L125.15 233.749L125.055 233.97V234.285V241.75L124.236 242.443L123.48 243.199L122.85 244.05L122.283 244.9L121.779 245.845L121.37 246.853L121.055 247.861L120.897 248.869L120.803 249.94V251.011L120.897 252.082L121.086 253.153L121.401 254.161L121.842 255.106L122.346 256.051L122.913 256.965L123.606 257.784L124.362 258.54L125.181 259.233L126.032 259.831L126.977 260.398L127.985 260.808L128.993 261.154L130.064 261.406L131.135 261.564L132.237 261.627L133.308 261.564L134.379 261.406L135.45 261.154L136.521 260.808L137.466 260.398L138.411 259.831L139.262 259.233L140.112 258.54L140.805 257.784L141.498 256.965L142.065 256.051L142.569 255.106L142.979 254.161L143.294 253.153L143.546 252.082L143.64 251.011V249.94L143.546 248.869L143.357 247.861L143.042 246.853L142.632 245.845L142.128 244.9L141.561 244.05L140.9 243.199L140.144 242.443L139.325 241.75M127.418 238.159L127.481 238.002L127.638 237.844L127.733 237.75H127.89M127.733 238.159L127.796 238.222V238.285M127.764 238.254L127.922 238.348L128.016 238.443M128.016 238.474L128.111 238.569L128.205 238.663M128.237 238.663L128.394 238.852L128.457 239.01M128.426 239.01L128.363 239.262L128.205 239.419L128.048 239.482L127.859 239.545M127.355 239.167L127.607 239.01L127.764 239.167L127.827 239.23H127.922H127.985L128.048 239.167L128.111 239.104V239.041M128.079 239.073V238.978L127.985 238.884L127.89 238.789M133.151 234.789L133.56 235.954L133.97 234.789H134.285M131.45 236.49L131.292 236.427L131.135 236.332L131.04 236.238V236.08M131.04 236.112V235.954L131.135 235.797L131.324 235.608M131.355 235.608L131.198 235.45L131.135 235.261M131.135 235.23L131.198 235.072L131.355 234.915L131.45 234.852H131.607M131.607 234.883H131.765L131.922 234.978L131.985 235.072L132.048 235.23M134.946 239.482H135.261V238.978M134.978 239.482V238.285M135.261 238.254V238.348L135.45 238.254L135.639 238.191M135.671 238.222L135.828 238.285L135.986 238.38M136.742 238.222L136.994 238.317L137.183 238.474L136.994 238.632M136.647 238.569L136.71 238.632V238.695H136.805M136.773 238.663L136.868 238.726M136.899 238.726L137.151 238.915L137.214 239.01V239.104M137.183 239.104L137.12 239.262L137.025 239.419L136.868 239.482H136.71M136.742 239.482L136.49 239.419L136.332 239.262L136.49 239.073L136.647 239.167L136.742 239.23H136.805L136.868 239.167H136.931V239.104M130.788 235.639L130.725 236.049L130.473 236.364L130.158 236.458H129.812M133.403 238.852L133.466 238.537L133.623 238.38M133.623 238.411L133.875 238.254L134.064 238.191M134.064 238.222L134.316 238.317L134.568 238.474L134.663 238.663L134.726 238.852L134.631 239.104L134.474 239.356L134.285 239.451H134.096M134.064 239.482L133.749 239.419L133.56 239.262L133.466 239.073L133.403 238.884M133.151 239.482H132.836M132.867 239.482V238.285M133.151 238.254V239.451M128.615 238.852L128.678 238.537L128.835 238.38M128.835 238.411L129.087 238.254L129.276 238.191M129.276 238.222L129.528 238.317L129.78 238.474L129.875 238.663L129.938 238.852L129.843 239.104L129.686 239.356L129.497 239.451H129.308M129.276 239.482L128.961 239.419L128.772 239.262L128.678 239.073L128.615 238.884M130.505 239.482H130.158M131.04 238.254V238.821L131.103 239.136L131.166 239.199H131.229L131.324 239.262M131.292 239.23H131.387L131.45 239.167L131.513 239.104L131.576 239.041M131.544 238.852V238.254H131.859V238.758V239.01L131.796 239.199M132.521 239.482H132.206V238.537M132.804 237.97V237.876L132.899 237.781H132.993M132.993 237.75H133.088L133.151 237.813L133.214 237.876V237.97V238.033L133.151 238.128H133.056L132.993 238.191M140.868 229.465V229.623M140.837 228.268L141.152 210.534H141.215V208.266H141.152H139.986M125.748 210.534L125.496 227.103M125.465 227.071L125.78 208.234M160.65 233.938L161.816 234.033L162.981 234.222L164.084 234.474L164.178 234.537L164.273 234.6L164.367 234.694L164.43 234.757L164.493 234.852M160.65 233.938H160.304M160.65 233.938L159.453 234.001L158.288 234.096L157.122 234.348L156.02 234.694L154.949 235.104L153.878 235.671L152.87 236.332L151.956 237.025L151.106 237.844L150.287 238.695M160.304 259.611H160.65L161.816 259.548L162.981 259.359L164.084 259.044M164.084 259.044L164.178 258.981L164.273 258.918L164.367 258.855L164.43 258.76L164.493 258.666V258.256L164.43 258.162M164.084 259.044L164.241 258.981L164.336 258.886L164.399 258.792L164.493 258.697V258.288L164.43 258.193L163.359 258.508L162.257 258.76L161.154 258.855L160.052 258.918L158.949 258.855L157.878 258.666L156.776 258.414L155.768 258.004L154.76 257.563L153.815 256.996L152.901 256.398L152.051 255.642L151.295 254.886L150.602 254.035L149.94 253.122L149.436 252.114L148.995 251.106L148.649 250.035L148.397 248.964L148.239 247.861L148.176 246.759L148.239 245.656L148.397 244.554L148.649 243.483L148.995 242.412L149.436 241.404L149.94 240.459L150.602 239.545L151.295 238.632L152.051 237.876L152.901 237.183L153.815 236.521L154.76 235.954L155.768 235.513L156.776 235.167L157.878 234.852L158.949 234.694L160.052 234.6L161.154 234.663L162.257 234.757L163.359 235.009L164.43 235.324M160.304 234.631H159.737L158.634 234.789L157.532 234.978L156.429 235.293L155.421 235.702L154.413 236.206L153.468 236.805L152.555 237.466L151.736 238.222L150.98 239.041L150.318 239.955L149.72 240.9L149.216 241.908L148.806 242.979L148.491 244.05L148.302 245.152L148.208 246.255V247.357L148.302 248.46L148.491 249.562L148.806 250.665L149.216 251.673L149.72 252.681L150.318 253.626L150.98 254.539L151.736 255.358L152.555 256.114L153.468 256.807L154.413 257.374L155.421 257.878L156.429 258.288L157.532 258.634L158.634 258.823L159.737 258.918H160.304M164.493 234.852V235.293L164.43 235.356L164.493 235.261V234.852ZM164.493 234.852L164.399 234.757L164.336 234.663L164.241 234.568L164.084 234.505M145.751 251.263L146.097 251.421L146.79 251.767L147.294 252.114L147.798 252.46L148.239 252.807L148.68 253.153L149.09 253.563L149.531 254.004L149.94 254.413L150.287 254.854M150.318 254.886L151.137 255.799L151.988 256.555L152.901 257.311L153.909 257.91L154.98 258.477L156.051 258.918L157.154 259.233L158.319 259.485L159.485 259.642H160.682L161.847 259.579L163.013 259.39L164.115 259.075M150.318 238.663L149.972 239.104L149.562 239.545L149.121 239.955L148.712 240.364L148.271 240.711L147.83 241.12L147.326 241.435L146.822 241.782M146.79 241.782L146.034 242.128L145.719 242.286M142.128 194.248V193.398M138.6 195.981V195.13M127.166 195.13V195.981M125.402 194.248V195.099M116.046 173.836H115.479M139.703 227.071H135.576M135.923 222.189L135.828 221.842M119.007 236.143V236.458L118.944 236.868M131.135 222.85H128.268M143.64 250.885V250.066M120.834 249.184V250.003M130.505 235.702V235.608M127.922 84.5655L128.111 84.6285L128.3 84.723L128.394 84.912L128.457 85.101L128.394 85.353L128.3 85.5105L128.111 85.668L127.922 85.731L127.67 85.668L127.512 85.5105L127.355 85.353L127.292 85.101L127.355 84.912L127.512 84.723L127.67 84.6285L127.922 84.5655ZM137.907 84.5655L138.096 84.6285L138.285 84.723L138.443 84.912V85.353L138.285 85.5105L138.096 85.668L137.907 85.731L137.718 85.668L137.529 85.5105L137.435 85.353L137.372 85.101L137.435 84.912L137.529 84.723L137.718 84.6285L137.907 84.5655ZM127.764 122.869L127.922 122.932L128.079 123.027L128.174 123.184V123.499L128.079 123.657L127.922 123.751H127.607L127.449 123.657L127.355 123.499L127.292 123.342L127.355 123.184L127.449 123.027L127.607 122.932L127.764 122.869ZM138.033 122.869L138.191 122.932L138.348 123.027L138.443 123.184V123.499L138.348 123.657L138.191 123.751H137.876L137.718 123.657L137.624 123.499L137.561 123.342L137.624 123.184L137.718 123.027L137.876 122.932L138.033 122.869ZM140.774 250.444L140.711 249.531L140.553 248.617L140.301 247.767L139.955 246.916L139.545 246.097L138.978 245.341L138.411 244.648L137.718 244.05L136.962 243.483L136.206 243.042L135.356 242.632L134.442 242.38L133.529 242.191L132.615 242.097H131.702L130.757 242.191L129.843 242.38L128.993 242.632L128.142 243.042L127.386 243.483L126.63 244.05L125.969 244.648L125.37 245.341L124.803 246.097L124.394 246.916L124.047 247.767L123.795 248.617L123.638 249.531L123.575 250.444L123.638 251.358L123.795 252.208L124.047 253.122L124.394 253.941L124.835 254.76L125.339 255.516L125.937 256.209L126.599 256.807L127.355 257.374L128.174 257.815L129.024 258.225L129.875 258.54L130.788 258.697L131.702 258.792H132.647L133.56 258.697L134.474 258.54L135.387 258.225L136.206 257.815L137.025 257.374L137.781 256.807L138.443 256.209L139.041 255.516L139.545 254.76L139.986 253.941L140.333 253.122L140.522 252.208L140.679 251.358L140.774 250.444Z" stroke="black" stroke-linecap="round" stroke-linejoin="round"/>
</g>
</g>
<defs>
<clipPath id="clip0_88_9">
<rect width="344" height="520" fill="white"/>
</clipPath>
<clipPath id="clip1_88_9">
<rect width="252" height="252" fill="white" transform="translate(0 33)"/>
</clipPath>
</defs>
</svg>
